<svg xmlns="http://www.w3.org/2000/svg" xmlns:xlink="http://www.w3.org/1999/xlink" width="414" height="276" viewBox="0 0 414 276"><defs><style>.a,.i,.j,.l,.m,.o,.p,.q,.u{fill:#fff;}.a{stroke:#707070;}.b{clip-path:url(#a);}.c{fill:#ebebeb;}.d{fill:#f5f5f5;}.e{fill:#f0f0f0;}.f{fill:#e0e0e0;}.g{fill:#fafafa;}.h{fill:#ff9c01;}.i{opacity:0.9;}.j{opacity:0.6;}.k{opacity:0.1;}.m,.n{opacity:0.3;}.o{opacity:0.4;}.p,.t{opacity:0.2;}.q{opacity:0.8;}.r{fill:#b97964;}.s{fill:#263238;}.u{opacity:0.7;}.v{fill:#e4897b;}</style><clipPath id="a"><rect class="a" width="414" height="276" transform="translate(0 123)"/></clipPath></defs><g class="b" transform="translate(0 -123)"><g transform="translate(21.795 122.963)"><rect class="c" width="370.41" height="0.185" transform="translate(0 242.582)"/><rect class="c" width="24.536" height="0.185" transform="translate(308.759 254.501)"/><rect class="c" width="6.438" height="0.185" transform="translate(238.937 256.516)"/><rect class="c" width="14.216" height="0.185" transform="translate(293.802 247.627)"/><rect class="c" width="31.996" height="0.185" transform="translate(38.863 248.871)"/><rect class="c" width="4.689" height="0.185" transform="translate(77.46 248.871)"/><rect class="c" width="69.4" height="0.185" transform="translate(97.396 251.997)"/><path class="c" d="M175.574,250.249H32.529a4.23,4.23,0,0,1-4.223-4.23V44.938a4.23,4.23,0,0,1,4.223-4.193H175.574a4.23,4.23,0,0,1,4.23,4.23V246.019A4.23,4.23,0,0,1,175.574,250.249ZM32.529,40.893a4.045,4.045,0,0,0-4.037,4.045V246.019a4.045,4.045,0,0,0,4.037,4.045H175.574a4.052,4.052,0,0,0,4.045-4.045V44.938a4.052,4.052,0,0,0-4.045-4.045Z" transform="translate(0 -40.708)"/><path class="c" d="M335.821,250.249H192.769a4.237,4.237,0,0,1-4.23-4.23V44.938a4.237,4.237,0,0,1,4.23-4.193H335.821a4.23,4.23,0,0,1,4.215,4.193V246.019A4.23,4.23,0,0,1,335.821,250.249ZM192.769,40.893a4.052,4.052,0,0,0-4.045,4.045V246.019a4.052,4.052,0,0,0,4.045,4.045H335.821a4.052,4.052,0,0,0,4.045-4.045V44.938a4.052,4.052,0,0,0-4.045-4.045Z" transform="translate(0 -40.708)"/><path class="d" d="M99.559,60.384H58.436l.63-5.556h41.123Z"/><path class="d" d="M96.61,86.38H55.487l.63-5.564H97.24Z"/><path class="d" d="M93.669,112.368H52.546l.63-5.564H94.3Z"/><path class="d" d="M90.721,138.356H49.6l.63-5.564H91.351Z"/><path class="d" d="M87.78,164.344H46.657l.63-5.556H88.409Z"/><path class="d" d="M84.839,190.332H43.716l.63-5.556H85.461Z"/><path class="d" d="M81.89,216.32H40.767l.63-5.556H82.52Z"/><path class="c" d="M40.6,242.767H34.167l22.543-199h6.438Z"/><path class="c" d="M82.505,242.767H76.067l22.543-199h6.438Z"/><rect class="d" width="77.564" height="210.408" transform="translate(251.612 32.359)"/><rect class="c" width="69.067" height="34.322" transform="translate(255.865 36.982)"/><rect class="e" width="21.358" height="21.358" transform="translate(264.495 49.939)"/><rect class="e" width="15.202" height="15.202" transform="translate(293.528 56.095)"/><rect class="c" width="69.067" height="34.322" transform="translate(255.865 74.904)"/><rect class="e" width="10.283" height="21.358" transform="translate(264.495 87.861)"/><rect class="e" width="22.877" height="8.756" transform="translate(285.86 100.47)"/><rect class="e" width="22.21" height="13.061" transform="translate(281.512 87.409)"/><rect class="c" width="69.067" height="34.322" transform="translate(255.865 112.827)"/><rect class="e" width="4.349" height="21.358" transform="translate(281.512 125.784)"/><rect class="e" width="26.67" height="28.907" transform="translate(293.528 118.242)"/><rect class="c" width="69.067" height="34.322" transform="translate(255.865 150.75)"/><rect class="e" width="21.358" height="21.358" transform="translate(264.495 163.706)"/><rect class="e" width="15.202" height="15.202" transform="translate(293.528 169.863)"/><rect class="c" width="69.067" height="34.322" transform="translate(255.865 188.672)"/><rect class="e" width="21.358" height="21.358" transform="translate(264.495 201.629)"/><rect class="e" width="15.202" height="15.202" transform="translate(293.528 207.785)"/><rect class="e" width="23.395" height="10.579" transform="translate(262.465 21.78)"/><rect class="e" width="12.038" height="5.289" transform="translate(294.824 27.07)"/><rect class="c" width="67.17" height="60.236" transform="translate(139.304 242.767) rotate(180)"/><rect class="f" width="23.38" height="60.236" transform="translate(139.304 242.767) rotate(180)"/><rect class="d" width="67.17" height="49.035" transform="translate(125.932 183.775) rotate(180)"/><rect class="c" width="23.38" height="49.035" transform="translate(125.932 183.775) rotate(180)"/><rect class="g" width="64.777" height="24.003" transform="translate(139.304 134.726) rotate(180)"/><rect class="e" width="22.543" height="24.003" transform="translate(139.296 134.726) rotate(180)"/><rect class="e" width="91.758" height="5.289" transform="translate(48.657 21.78)"/><rect class="d" width="13.327" height="7.482" transform="translate(55.487 14.298)"/><rect class="e" width="14.12" height="14.12" transform="translate(71.889 7.653)"/><rect class="c" width="7.06" height="7.06" transform="translate(91.099 14.713)"/><path class="d" d="M110.116,59.08a3.66,3.66,0,1,1-3.652-3.652A3.66,3.66,0,0,1,110.116,59.08Z" transform="translate(0 -40.708)"/><path class="c" d="M114.738,21.78l4.438-14.127H126.5l4.052,14.372Z"/><path class="h" d="M77.46,75.29c20.676-44.042,94.121-37.834,122.465-6.86s37.56,50.82,63.125,39.263,58.169-8.475,60.006,28.277S295,216.157,247.434,229.01,199.9,287.357,136.978,278.178c-34.307-5.008-35.085-42.123-30.24-72.823S53.472,126.362,77.46,75.29Z" transform="translate(0 -40.708)"/><path class="i" d="M77.742,75.29c20.684-44.042,94.129-37.834,122.472-6.86s37.552,50.82,63.118,39.263,58.169-8.475,60.043,28.277-28.092,80.186-75.63,93.04-47.531,58.347-110.456,49.168c-34.315-5.008-35.056-42.123-30.248-72.823S53.754,126.362,77.742,75.29Z" transform="translate(0 -40.708)"/><ellipse class="d" cx="143.638" cy="8.386" rx="143.638" ry="8.386" transform="translate(41.567 259.265)"/><path class="h" d="M241.841,87.691V307.322a3.2,3.2,0,0,1-3.252,3.215H136.355a2.845,2.845,0,0,1-2.045-.822,2.963,2.963,0,0,1-.867-2.119V87.417a2.593,2.593,0,0,1,2.489-2.689h29.048a2.045,2.045,0,0,1,1.867,1.3l1.208,2.963a2.052,2.052,0,0,0,1.867,1.3h35.522a2.022,2.022,0,0,0,1.867-1.274l1.208-2.963a2.045,2.045,0,0,1,1.867-1.311H239A2.963,2.963,0,0,1,241.841,87.691Z" transform="translate(0 -40.708)"/><rect class="j" width="1.511" height="2.015" transform="translate(148.446 52.872) rotate(180)"/><rect class="j" width="1.511" height="2.682" transform="translate(145.979 52.872) rotate(180)"/><rect class="j" width="1.511" height="3.356" transform="translate(143.527 52.872) rotate(180)"/><rect class="j" width="1.511" height="4.03" transform="translate(141.06 52.872) rotate(180)"/><rect class="j" width="0.896" height="2.015" transform="translate(227.113 50.124)"/><rect class="j" width="7.134" height="3.482" transform="translate(235.759 52.872) rotate(180)"/><g class="k"><path class="l" d="M182.242,90.291,151.016,207.17h0l-.348,1.319h0l-.563,2.1h0l-.356,1.311-16.3,61.029v-73.86L163.981,84.72h.993a2.037,2.037,0,0,1,1.867,1.3l1.208,2.963a2.03,2.03,0,0,0,1.867,1.289Z" transform="translate(0 -40.708)"/><path class="l" d="M241.841,109.271v73.86l-19.454,72.9-.474,1.771L218.7,269.829H198.984l3.208-12.024.519-1.934,2.578-9.653.511-1.934,1.037-3.86.511-1.934,1.03-3.867.511-1.926,16.224-60.762v-.007l.748-2.808v-.007Z"/><path class="l" d="M192.9,90.291l-31,116.146-.193.7-1.689,6.364-.193.7-25.5,95.521a2.963,2.963,0,0,1-.867-2.126v-11.26l21.936-82.164.185-.7,1.7-6.364.185-.7L188.472,90.262Z" transform="translate(0 -40.708)"/></g><rect class="m" width="108.382" height="201.762" transform="translate(133.459 56.043)"/><path class="h" d="M220.987,187.709h0a3.778,3.778,0,0,0,3.778-3.771V124.332a3.778,3.778,0,0,0-3.778-3.771h0a3.778,3.778,0,0,0-3.778,3.771v59.606a3.778,3.778,0,0,0,3.778,3.771Z" transform="translate(0 -40.708)"/><path class="n" d="M220.987,186.227a2.3,2.3,0,0,1-2.3-2.289V124.332a2.3,2.3,0,1,1,4.593,0v59.606a2.3,2.3,0,0,1-2.3,2.289Z" transform="translate(0 -40.708)"/><circle class="h" cx="5.475" cy="5.475" r="5.475" transform="matrix(0.16, -0.987, 0.987, 0.16, 214.717, 94.03)"/><circle class="j" cx="5.475" cy="5.475" r="5.475" transform="matrix(0.16, -0.987, 0.987, 0.16, 214.144, 94.03)"/><path class="j" d="M220.438,133.511a3.274,3.274,0,1,1,2.325-.954,3.282,3.282,0,0,1-2.325.954Z" transform="translate(0 -40.708)"/><path class="h" d="M198.6,188.079h0a3.778,3.778,0,0,0,3.778-3.778V124.7a3.778,3.778,0,0,0-3.778-3.778h0a3.771,3.771,0,0,0-3.771,3.778v59.6a3.778,3.778,0,0,0,3.771,3.778Z" transform="translate(0 -40.708)"/><path class="n" d="M198.6,186.6a2.3,2.3,0,0,1-2.289-2.3V124.7a2.3,2.3,0,1,1,4.586,0v59.6A2.3,2.3,0,0,1,198.6,186.6Z" transform="translate(0 -40.708)"/><circle class="h" cx="5.475" cy="5.475" r="5.475" transform="matrix(0.16, -0.987, 0.987, 0.16, 192.333, 136.629)"/><circle class="j" cx="5.475" cy="5.475" r="5.475" transform="translate(193.295 126.614)"/><path class="j" d="M198.8,176.108a3.282,3.282,0,1,1,3.274-3.282,3.282,3.282,0,0,1-3.274,3.282Z" transform="translate(0 -40.708)"/><path class="h" d="M177.856,188.82h0a3.778,3.778,0,0,0,3.778-3.778v-59.6a3.778,3.778,0,0,0-3.778-3.778h0a3.771,3.771,0,0,0-3.771,3.778v59.6a3.778,3.778,0,0,0,3.771,3.778Z" transform="translate(0 -40.708)"/><path class="n" d="M177.856,187.339a2.3,2.3,0,0,1-2.289-2.3v-59.6a2.3,2.3,0,1,1,4.586,0v59.6a2.3,2.3,0,0,1-2.3,2.3Z" transform="translate(0 -40.708)"/><ellipse class="h" cx="5.475" cy="5.438" rx="5.475" ry="5.438" transform="matrix(0.16, -0.987, 0.987, 0.16, 171.588, 121.071)"/><circle class="j" cx="5.475" cy="5.475" r="5.475" transform="matrix(0.16, -0.987, 0.987, 0.16, 171.014, 121.067)"/><path class="j" d="M177.315,160.551a3.282,3.282,0,1,1,3.274-3.282A3.282,3.282,0,0,1,177.315,160.551Z" transform="translate(0 -40.708)"/><path class="h" d="M156.372,188.82h0a3.778,3.778,0,0,0,3.778-3.778v-59.6a3.778,3.778,0,0,0-3.778-3.778h0a3.771,3.771,0,0,0-3.771,3.778v59.6a3.778,3.778,0,0,0,3.771,3.778Z" transform="translate(0 -40.708)"/><path class="n" d="M156.372,187.339a2.3,2.3,0,0,1-2.289-2.3v-59.6a2.3,2.3,0,1,1,4.586,0v59.6a2.3,2.3,0,0,1-2.3,2.3Z" transform="translate(0 -40.708)"/><circle class="h" cx="5.475" cy="5.475" r="5.475" transform="matrix(0.16, -0.987, 0.987, 0.16, 150.102, 142.552)"/><circle class="j" cx="5.475" cy="5.475" r="5.475" transform="matrix(0.16, -0.987, 0.987, 0.16, 149.529, 142.552)"/><path class="j" d="M155.832,182.034a3.282,3.282,0,1,1,3.274-3.282,3.282,3.282,0,0,1-3.274,3.282Z" transform="translate(0 -40.708)"/><rect class="h" width="97.907" height="91.714" rx="2.037" transform="translate(138.696 159.973)"/><rect class="n" width="97.907" height="91.714" rx="2.037" transform="translate(138.696 159.973)"/><path class="j" d="M178.819,260.628v7.882l4.06.385a21.172,21.172,0,0,0,3.023,7.282l-2.608,3.148,5.578,5.571,3.148-2.608a20.981,20.981,0,0,0,7.282,3.03l.378,4.06h7.89l.378-4.06a20.921,20.921,0,0,0,7.282-3.03l3.148,2.608,5.578-5.571-2.608-3.148a21.179,21.179,0,0,0,3.03-7.282l4.06-.385v-7.882l-4.06-.385a21.179,21.179,0,0,0-3.03-7.282l2.608-3.148-5.578-5.571-3.148,2.608a20.921,20.921,0,0,0-7.282-3.03l-.378-4.06h-7.89l-.378,4.06a20.98,20.98,0,0,0-7.282,3.03l-3.111-2.608-5.578,5.571,2.608,3.148a21.172,21.172,0,0,0-3.023,7.282Zm24.81-6.734a10.675,10.675,0,1,1-10.675,10.675A10.675,10.675,0,0,1,203.629,253.894Z" transform="translate(0 -40.708)"/><path class="o" d="M146.86,237.989v6.178l3.186.3a16.58,16.58,0,0,0,2.371,5.712l-2.03,2.445,4.371,4.363,2.467-2.037a16.609,16.609,0,0,0,5.7,2.371l.3,3.178h6.178l.3-3.178a16.484,16.484,0,0,0,5.7-2.371l2.474,2.037,4.356-4.363-2.045-2.467a16.454,16.454,0,0,0,2.378-5.712l3.178-.3v-6.178l-3.178-.3a16.476,16.476,0,0,0-2.378-5.7l2.045-2.467-4.363-4.371-2.474,2.045a16.483,16.483,0,0,0-5.7-2.371l-.3-3.178h-6.178l-.3,3.178a16.609,16.609,0,0,0-5.7,2.371l-2.467-2.045-4.371,4.371,2.045,2.467a16.608,16.608,0,0,0-2.371,5.7Zm19.447-5.275a8.364,8.364,0,1,1-8.364,8.364,8.364,8.364,0,0,1,8.364-8.364Z" transform="translate(0 -40.708)"/><path class="p" d="M181.316,218.912V224.1l2.674.252a13.935,13.935,0,0,0,1.993,4.793l-1.719,2.074,3.7,3.667,2.067-1.719a13.994,13.994,0,0,0,4.793,1.993l.252,2.674h5.186l.252-2.674a13.935,13.935,0,0,0,4.793-1.993l2.074,1.719,3.667-3.667-1.719-2.074a13.8,13.8,0,0,0,1.993-4.793L214,224.1v-5.186l-2.674-.252a13.853,13.853,0,0,0-1.993-4.793l1.719-2.067-3.667-3.7-2.074,1.719a13.935,13.935,0,0,0-4.793-1.993l-.274-2.615h-5.186l-.252,2.674a14,14,0,0,0-4.793,1.993l-2.067-1.719-3.7,3.7,1.719,2.067a13.994,13.994,0,0,0-1.993,4.793Zm16.335-4.445a7.016,7.016,0,1,0,0,.015Z" transform="translate(0 -40.708)"/><path class="j" d="M172.256,198.769l-4.356-4.356-5.949,1.6-1.593,5.949,4.356,4.356,5.949-1.593Z"/><path class="q" d="M204.592,216.29l-7.045,2.948-.956,7.571,6.075,4.623,7.038-2.956.963-7.571Z"/><path class="o" d="M202.022,183.323v-5.052l-4.371-2.526-4.378,2.526v5.052l4.378,2.526Z"/><path class="r" d="M304.618,176.026l7.882,6.4s1.926.044,2.534.682,2.963,5.364,2.6,6.008-4.215,1.919-5.038,1.156-2.222-5.141-2.222-5.608L300.3,177.908Z" transform="translate(0 -40.708)"/><path class="s" d="M308.989,178.841l-1.763,3.845s-10.838-5.075-13.187-8.031c-.6-.741-1.43-1.978-2.326-3.363-1.482-2.289-3.141-5.045-4.3-6.979-.859-1.482-1.437-2.43-1.437-2.43l6.134-9.675c1.341,1.03,5.445,17.565,6.178,18.454S308.989,178.841,308.989,178.841Z" transform="translate(0 -40.708)"/><path class="t" d="M291.713,171.292c-1.482-2.289-3.141-5.045-4.3-6.979l2.852-7.038A83.914,83.914,0,0,1,291.713,171.292Z" transform="translate(0 -40.708)"/><path class="r" d="M241.752,139.311l-8.312-5.927s-.993-1.652-1.845-1.867-6.112.111-6.512.741.422,4.615,1.482,4.949,5.578-.593,5.971-.845l8.438,5.83Z" transform="translate(0 -40.708)"/><path class="r" d="M307.329,264.354l-4.652.822-1.9-6.341-1.741-5.823,5.364-1.874,1.556,7Z"/><path class="t" d="M305.974,258.28l-5.178.682-1.756-5.882,5.356-1.9Z"/><path class="r" d="M276.282,264.473h-4.719l-.778-6.341-.7-5.912,5.608-.852.319,6.949Z"/><path class="t" d="M276.007,258.731l-5.223-.23-.7-6.1,5.608-.941Z"/><path class="h" d="M306.411,293.906l-7.645,1.348c-7.712-19.224-13.2-35.27-17.076-48.583-2.089-7.186-3.741-13.572-4.986-19.261l.319,20.921v47.257H269.31c-18.883-89.639-5.5-110.479-5.5-110.479l22.588-3.778a103.121,103.121,0,0,1,1.9,12.69l1.015,7.482,8.838,45.612Z" transform="translate(0 -40.708)"/><path class="h" d="M297.573,253.6l9.483-3.148-.133,4.037-7.838,2.5Z"/><path class="j" d="M297.765,253.6l9.482-3.148-.126,4.037-7.845,2.5Z"/><path class="h" d="M268.3,254.035l9.883-1.445-.83,3.949-8.156,1.1Z"/><path class="j" d="M268.236,254.035l9.89-1.445-.83,3.949-8.156,1.1Z"/><path class="t" d="M282.734,250.19c-.356-1.193-.741-2.363-1.074-3.519-1.889-6.519-3.156-12.387-4.638-17.646h0l-.741-9.69s4.83-10.646,3.023-18.143c.17.43,3.363,8.594,2.111,16.743a237.375,237.375,0,0,0,1.319,32.255Z" transform="translate(0 -40.708)"/><path class="r" d="M283.379,142.482a1,1,0,0,1-.193.111,8.52,8.52,0,0,1-3.082,1.037c-3.148.3-5.186-.385-6.371-1.948h0c-1.637-2.326-1.637-6.067-.793-10.468a16.839,16.839,0,0,1,1.645-5.06v-.074a.882.882,0,0,1,.1-.178,6.119,6.119,0,0,1,4.934-3.119,12.452,12.452,0,0,1,2.66.044C290.965,123.865,290.661,138.4,283.379,142.482Z" transform="translate(0 -40.708)"/><path class="t" d="M283.186,142.593a8.319,8.319,0,0,1-3.067.919c-3.148.3-5.186-.489-6.356-2.067a8.712,8.712,0,0,0,5.549.259A4.534,4.534,0,0,1,283.186,142.593Z" transform="translate(0 -40.708)"/><path class="r" d="M283.83,149.646c.778,2.422-2.326,3.741-2.326,3.741-5.46-1.719-6.7-4.445-6.7-4.445,4.149-2.711,2.222-9.038,2.222-9.038l.933.356,6.356.607s-1.4,3.489-1.556,4.275h0C281.993,149.3,283.83,149.646,283.83,149.646Z" transform="translate(0 -40.708)"/><path class="s" d="M274.585,126.1a9.181,9.181,0,0,0,4.141,9.364s1.652,6.623,5.275,7.186c4.941.741,10.231-5.712,9.445-13.12C292.431,119.917,278.415,117.324,274.585,126.1Z" transform="translate(0 -40.708)"/><path class="r" d="M276.044,133.348c.126-.948,1.089-2.437,2.534-2.03s1.852,4.282-2,4.638C276.022,136,275.778,135.311,276.044,133.348Z" transform="translate(0 -40.708)"/><path class="s" d="M271.059,304.285h5.267a.489.489,0,0,1,.467.378l1.082,4.889a.807.807,0,0,1-.622.956.74.74,0,0,1-.178,0c-2.163-.037-2.334-.17-5.045-.17-1.667,0-6.667.178-9,.178s-2.608-2.274-1.667-2.489c4.23-.919,7.408-2.222,8.771-3.415A1.319,1.319,0,0,1,271.059,304.285Z" transform="translate(0 -40.708)"/><path class="h" d="M269.244,305.218a1.659,1.659,0,0,1-1.052-.274.741.741,0,0,1-.274-.7.4.4,0,0,1,.222-.363c.607-.311,2.385.741,2.578.9a.126.126,0,0,1,.067.126.141.141,0,0,1-.1.111A6.667,6.667,0,0,1,269.244,305.218Zm-.815-1.133a.333.333,0,0,0-.17,0,.217.217,0,0,0-.082.156.533.533,0,0,0,.178.467,2.667,2.667,0,0,0,1.956.1,5.319,5.319,0,0,0-1.882-.7Z" transform="translate(0 -40.708)"/><path class="h" d="M270.651,305.055h-.067c-.563-.3-1.659-1.482-1.548-2.1a.422.422,0,0,1,.422-.341.741.741,0,0,1,.548.17c.637.511.741,2.089.741,2.171a.163.163,0,0,1-.067.119A.1.1,0,0,1,270.651,305.055Zm-1.1-2.222h-.067c-.163,0-.178.1-.185.133-.074.356.63,1.274,1.193,1.7a3.111,3.111,0,0,0-.652-1.719.467.467,0,0,0-.289-.119Z" transform="translate(0 -40.708)"/><path class="s" d="M302.5,304.285h5.267a.474.474,0,0,1,.467.378l1.089,4.889a.808.808,0,0,1-.63.956.74.74,0,0,1-.178,0c-2.156-.037-2.334-.17-5.038-.17-1.667,0-6.667.178-9.008.178s-2.6-2.274-1.659-2.489c4.23-.919,7.408-2.222,8.764-3.415a1.334,1.334,0,0,1,.926-.326Z" transform="translate(0 -40.708)"/><path class="h" d="M300.684,305.218a1.645,1.645,0,0,1-1.052-.274.741.741,0,0,1-.274-.7.393.393,0,0,1,.222-.363c.607-.311,2.378.741,2.578.9a.119.119,0,0,1,.059.126.133.133,0,0,1-.1.111,6.786,6.786,0,0,1-1.437.2Zm-.815-1.133a.333.333,0,0,0-.17,0c-.037,0-.074.052-.081.156a.526.526,0,0,0,.17.467,2.667,2.667,0,0,0,1.956.1,5.231,5.231,0,0,0-1.874-.7Z" transform="translate(0 -40.708)"/><path class="h" d="M302.084,305.055h-.059c-.57-.3-1.667-1.482-1.548-2.1a.422.422,0,0,1,.415-.341.741.741,0,0,1,.556.17c.63.511.741,2.089.741,2.171a.156.156,0,0,1-.059.119A.126.126,0,0,1,302.084,305.055Zm-1.1-2.222h-.059c-.17,0-.185.1-.193.133-.067.356.63,1.274,1.2,1.7a3.111,3.111,0,0,0-.652-1.719.474.474,0,0,0-.3-.119Z" transform="translate(0 -40.708)"/><path class="s" d="M263.814,185.153s-4.312-26.255,3.1-38.034c0,0,14.816-.919,25.188,5.089,0,0-4.3,11.69-4.941,32.944Z" transform="translate(0 -40.708)"/><path class="t" d="M262.465,165.062c-.319-3.563.741-6.993.889-10.016a28.959,28.959,0,0,0,4.867-5.556S269.57,160.128,262.465,165.062Z" transform="translate(0 -40.708)"/><path class="s" d="M268.74,147.068s-14.639-1.711-16.861-2.608c-1.378-.585-12.157-7.623-12.157-7.623L237.2,140.6s11.031,8.89,12.89,9.927c4.371,2.4,14.2,5.786,14.2,5.786S270.214,152.157,268.74,147.068Z" transform="translate(0 -40.708)"/><path class="s" d="M290.268,124.791s5.03-4.282,10.023-1.593-.822,13.053.637,16.231,4.623,2.963.63,5.03-.126,3.823-.126,3.823-3.571,1.215-3.867-1.734-1.585-5.371-2.741-5.875,1.963-6.09.882-8.853-4.215-2.534-4.215-2.534Z" transform="translate(0 -40.708)"/><path class="s" d="M282.3,122.828s-6.341-3.971-9.327-1.148c-4.608,4.363,1.963,10.631,8.89,13.6Z" transform="translate(0 -40.708)"/><path class="h" d="M147.816,203.126,95.855,145.267A12.653,12.653,0,0,0,82.024,127.54a.889.889,0,0,0-.511,1.482l6.816,7.593a1.1,1.1,0,0,1,.23,1.089l-1.482,4.526a1.119,1.119,0,0,1-.83.741l-4.66.985a1.119,1.119,0,0,1-1.059-.348l-6.816-7.586a.889.889,0,0,0-1.482.356,12.646,12.646,0,0,0,16.142,15.639l51.961,57.858A12.653,12.653,0,0,0,154.157,227.6a.889.889,0,0,0,.519-1.482l-6.838-7.579a1.119,1.119,0,0,1-.23-1.1l1.482-4.519a1.1,1.1,0,0,1,.83-.741l4.652-.985a1.111,1.111,0,0,1,1.059.348l6.823,7.586a.882.882,0,0,0,1.482-.356,12.653,12.653,0,0,0-16.142-15.639Z" transform="translate(0 -40.708)"/><path class="u" d="M147.9,202.733,95.944,144.882a12.653,12.653,0,0,0-13.831-17.728.889.889,0,0,0-.511,1.482l6.816,7.586a1.119,1.119,0,0,1,.23,1.1l-1.482,4.519a1.133,1.133,0,0,1-.83.741l-4.66.985a1.119,1.119,0,0,1-1.059-.348L73.8,135.629a.889.889,0,0,0-1.482.348,12.661,12.661,0,0,0,16.15,15.646l51.961,57.858a12.661,12.661,0,0,0,13.824,17.728.9.9,0,0,0,.519-1.482l-6.816-7.586a1.1,1.1,0,0,1-.23-1.089l1.482-4.526a1.133,1.133,0,0,1,.83-.741l4.652-.978a1.111,1.111,0,0,1,1.059.341l6.816,7.593a.9.9,0,0,0,1.519-.356,12.661,12.661,0,0,0-16.142-15.646Z" transform="translate(0 -40.708)"/><path class="v" d="M89.113,134.948s-15.431,2.022-17.432,4.771-2.111,5.3,7.008,7.927l2.674-1.948s-3.786-1.445-3.341-2.334,11.112-.556,11.112-.556Z" transform="translate(0 -40.708)"/><path class="h" d="M94.906,134.748l-2.148,7.49-3.608.548-7.556,1.148-.222-3.023-.437-5.971S88.358,133.451,94.906,134.748Z" transform="translate(0 -40.708)"/><path class="t" d="M91.121,137.919l-1.948,4.875-7.556,1.148-.222-3.023C85.194,137.933,91.121,137.919,91.121,137.919Z" transform="translate(0 -40.708)"/><path class="v" d="M89.617,264.31l6,.63.311-3.482.815-9.475-6.008-.637-.911,10.468Z"/><path class="v" d="M59.621,263.547h5.823l.059-1.319v-.163l.3-8.445v-.17l.126-3.237H60.1Z"/><path class="t" d="M90.736,251.346l-.911,10.468,6.1-.356.815-9.475Z"/><path class="t" d="M59.658,262.806h.015l5.83-.741h0l.3-8.149h0l-5.845.467-.289,8.164Z"/><path class="s" d="M66.252,303.907H59.177a.5.5,0,0,0-.5.4l-1.148,5.186a.859.859,0,0,0,.667,1.015.793.793,0,0,0,.185,0c2.289-.037,3.956-.178,6.83-.178,1.771,0,7.112.185,9.557.185s2.763-2.415,1.763-2.637c-4.489-.978-7.868-2.334-9.3-3.623A1.393,1.393,0,0,0,66.252,303.907Z" transform="translate(0 -40.708)"/><path class="s" d="M96.255,303.736H89.18a.5.5,0,0,0-.5.4l-1.148,5.186a.859.859,0,0,0,.667,1.015.8.8,0,0,0,.185,0c2.289-.037,3.956-.178,6.83-.178,1.771,0,7.112.185,9.557.185s2.763-2.415,1.763-2.637c-4.489-.978-7.868-2.334-9.3-3.623a1.393,1.393,0,0,0-.978-.348Z" transform="translate(0 -40.708)"/><path class="s" d="M97.3,301.292H88.758s-2.452-73.86-11.712-98.677c1.133,46.175-9.749,99.418-9.749,99.418H58.88s3.86-41.686,3.86-59.918c0-32.307-8.89-48.079-.237-68.985H93.41C100.981,218.727,103.893,250.916,97.3,301.292Z" transform="translate(0 -40.708)"/><path class="h" d="M98.255,258.176l-.415,2.408h-10.1v-2.222Z"/><path class="h" d="M68.289,259.1l-.97,2.222H58.851L58.3,259.1Z"/><path class="v" d="M120.013,137.459c-.23.185-.459.356-.7.511a8.03,8.03,0,0,1-4.6,1.371,8.623,8.623,0,0,1-1.237-.1,7.327,7.327,0,0,1-6.178-6.3c-.585-4.1,1.482-6.793,4.667-11.616a7.9,7.9,0,0,1,13.446.156C128.606,126.68,124.124,134.037,120.013,137.459Z" transform="translate(0 -40.708)"/><path class="t" d="M114.738,139.341a8.624,8.624,0,0,1-1.237-.1,7.334,7.334,0,0,1-5.23-3.534,8.549,8.549,0,0,1,1.985-.956,11.379,11.379,0,0,1,4.482,4.593Z" transform="translate(0 -40.708)"/><path class="v" d="M100.981,138.437c.741,3.763,6.9,7.134,6.9,7.134s4.193,1.63,4.267,0c-1.808-1.859-2.089-3.556-1.593-5.089a7.475,7.475,0,0,1,1.533-2.5,13.157,13.157,0,0,1,1.141-1.178l-3.111-10.231C108.515,130.621,105.026,137.652,100.981,138.437Z" transform="translate(0 -40.708)"/><path class="s" d="M128.006,122.176c-.63-3.511-2.408-3.7-2.408-3.7-.17-2.8-6.778-5.63-11.112-4.719s-7.275,4.726-8.46,8.238c-1.719,5.119-.682,11.468-.682,11.468h0c3.5,2.667,7.149,3.156,8.253,1.185s3.845-2.652,3.845-2.652c1.667,1.445,4.3,0,4.3,0a5.639,5.639,0,0,0,3.5-3.949C125.791,125.125,128.532,125.139,128.006,122.176Z" transform="translate(0 -40.708)"/><path class="v" d="M117.324,130.384a3.7,3.7,0,0,0,0,3.2c.645,1.1,2.222.23,3.141-1.267.785-1.326,1.437-3.534.259-4.052S117.916,128.9,117.324,130.384Z" transform="translate(0 -40.708)"/><path class="s" d="M118.079,113.746c6.5-1.934,11.727,8.727,11.475,14.379-.215,4.593-5.038,4.037-5.038,4.037s2.667-.178,2.408-3.4c0,0-1.156,3.949-3.741,1.356s.482-8.771.482-8.771Z" transform="translate(0 -40.708)"/><path class="t" d="M76.356,232.8a210.854,210.854,0,0,0-3.267-21.321c-8.749-10.994-3.971-21.143-3.971-21.143,1.17,7.06,7.927,12.275,7.927,12.275C77.312,212.549,77,222.809,76.356,232.8Z" transform="translate(0 -40.708)"/><path class="h" d="M100.966,136.748s1.874-1.393,5.349.659a11.327,11.327,0,0,1,4.608,5.978Z" transform="translate(0 -40.708)"/><path class="h" d="M96.744,187.709s0-18.024,18.846-39.841c0,0-8.46-11.809-20.684-13.12,0,0-22.565,7.742-34.856,40.745Z" transform="translate(0 -40.708)"/><path class="j" d="M115.486,148.008q-2.963,3.467-5.371,6.786a84.727,84.727,0,0,0-7.408,12.261c-6.06,12.342-6.06,20.795-6.06,20.795l-36.7-12.224c12.29-33,34.856-40.745,34.856-40.745C107.026,136.2,115.486,148.008,115.486,148.008Z" transform="translate(0 -40.708)"/><path class="h" d="M96.973,185.124c-.081.607-.133,1.111-.163,1.482L60.547,174.182c.178-.467.363-.926.548-1.378Z" transform="translate(0 -40.708)"/><path class="h" d="M97.61,181.457c-.111.526-.215,1.015-.3,1.482-12.594-4.852-26.87-10.268-34.967-13.068.2-.459.407-.9.615-1.348C71.993,171.626,87.624,177.6,97.61,181.457Z" transform="translate(0 -40.708)"/><path class="h" d="M98.566,177.738c-.148.5-.282.978-.407,1.437-10-4.341-25-10.646-33.789-13.55.23-.452.459-.889.689-1.326C74.008,167.277,88.706,173.463,98.566,177.738Z" transform="translate(0 -40.708)"/><path class="h" d="M99.8,173.937c-.17.489-.341.963-.5,1.422-9.734-4.7-23.706-11.112-32.685-13.861.252-.445.511-.882.741-1.3C76.534,163.025,90.195,169.3,99.8,173.937Z" transform="translate(0 -40.708)"/><path class="h" d="M101.337,170.107c-.207.467-.4.926-.578,1.385-9.312-4.978-22.225-11.379-31.648-14.009.289-.437.585-.874.882-1.3C79.527,158.936,92.165,165.2,101.337,170.107Z" transform="translate(0 -40.708)"/><path class="h" d="M103.144,166.233c-.23.459-.452.919-.667,1.371-8.756-5.186-20.669-11.453-30.588-14.031.326-.437.652-.859.985-1.282C82.868,155,94.521,161.143,103.144,166.233Z" transform="translate(0 -40.708)"/><path class="h" d="M105.2,162.366c-.259.452-.5.9-.741,1.333-8.149-5.245-19.1-11.349-29.477-13.957.37-.43.741-.845,1.126-1.252C86.513,151.224,97.233,157.187,105.2,162.366Z" transform="translate(0 -40.708)"/><path class="h" d="M107.537,158.58c-.274.415-.533.83-.793,1.245-7.467-5.252-17.557-11.112-28.247-13.8.422-.415.837-.815,1.252-1.2C90.291,147.638,100.174,153.409,107.537,158.58Z" transform="translate(0 -40.708)"/><path class="h" d="M110.116,154.831l-.852,1.2c-6.779-5.186-16.024-10.794-26.788-13.579.489-.4.963-.785,1.43-1.148A77.661,77.661,0,0,1,110.116,154.831Z" transform="translate(0 -40.708)"/><path class="h" d="M112.938,151.068c-.311.393-.615.778-.911,1.171a67.881,67.881,0,0,0-24.973-13.261c.57-.385,1.119-.741,1.645-1.059a69.764,69.764,0,0,1,24.24,13.15Z" transform="translate(0 -40.708)"/><path class="h" d="M115.568,147.868l-.585.689a60.747,60.747,0,0,0-22.536-12.742c.911-.452,1.6-.741,2.008-.9a62,62,0,0,1,19,10.423h0a30.085,30.085,0,0,1,2.111,2.534Z" transform="translate(0 -40.708)"/><path class="t" d="M110.219,154.654a84.727,84.727,0,0,0-7.408,12.261,18.521,18.521,0,0,1,6.83-14.676Z" transform="translate(0 -40.708)"/><path class="v" d="M115.568,153.439v22.877l8.89,15.868,3.637,4.052s-4.252,2.623-5.423.941a27.409,27.409,0,0,1-2.341-4.993s-8.786-11.8-10.164-14.616-1.874-19.861-1.874-19.861Z" transform="translate(0 -40.708)"/><path class="h" d="M115.568,147.868c1.393,3.852,1.385,16.98,1.385,16.98l-9.875.867-.785-5.186a18.091,18.091,0,0,1,3.393-9.342,8.245,8.245,0,0,1,5.882-3.319Z" transform="translate(0 -40.708)"/></g></g></svg>